<?xml version="1.0" encoding="utf-8"?>
<!-- Generator: Adobe Illustrator 28.2.0, SVG Export Plug-In . SVG Version: 6.00 Build 0)  -->
<svg version="1.0" xmlns="http://www.w3.org/2000/svg" xmlns:xlink="http://www.w3.org/1999/xlink" x="0px" y="0px"
	 viewBox="0 0 1000 1000" enable-background="new 0 0 1000 1000" xml:space="preserve">
<g id="Layer_3">
	<rect x="250.2" y="187.5" fill="#4B4B4B" stroke="#000000" stroke-width="12" stroke-miterlimit="10" width="500" height="625"/>
</g>
<g id="Layer_2">
	<rect x="300.2" y="229.5" fill="#FFFFFF" stroke="#000000" stroke-width="12" stroke-miterlimit="10" width="400" height="400"/>
	<line fill="none" stroke="#000000" stroke-miterlimit="10" x1="300.2" y1="241" x2="700.2" y2="241"/>
	<line fill="none" stroke="#000000" stroke-miterlimit="10" x1="300.2" y1="248" x2="700.2" y2="248"/>
	<line fill="none" stroke="#000000" stroke-miterlimit="10" x1="300.2" y1="255" x2="700.2" y2="255"/>
	<line fill="none" stroke="#000000" stroke-miterlimit="10" x1="300.2" y1="262" x2="700.2" y2="262"/>
	<line fill="none" stroke="#000000" stroke-miterlimit="10" x1="303.2" y1="269" x2="703.2" y2="269"/>
	<line fill="none" stroke="#000000" stroke-miterlimit="10" x1="303.2" y1="276" x2="703.2" y2="276"/>
	<line fill="none" stroke="#000000" stroke-miterlimit="10" x1="303.2" y1="283" x2="703.2" y2="283"/>
	<line fill="none" stroke="#000000" stroke-miterlimit="10" x1="303.2" y1="290" x2="703.2" y2="290"/>
	<line fill="none" stroke="#000000" stroke-miterlimit="10" x1="300.2" y1="297" x2="700.2" y2="297"/>
	<line fill="none" stroke="#000000" stroke-miterlimit="10" x1="300.2" y1="304" x2="700.2" y2="304"/>
	<line fill="none" stroke="#000000" stroke-miterlimit="10" x1="300.2" y1="311" x2="700.2" y2="311"/>
	<line fill="none" stroke="#000000" stroke-miterlimit="10" x1="300.2" y1="318" x2="700.2" y2="318"/>
	<line fill="none" stroke="#000000" stroke-miterlimit="10" x1="303.2" y1="325" x2="703.2" y2="325"/>
	<line fill="none" stroke="#000000" stroke-miterlimit="10" x1="303.2" y1="332" x2="703.2" y2="332"/>
	<line fill="none" stroke="#000000" stroke-miterlimit="10" x1="303.2" y1="339" x2="703.2" y2="339"/>
	<line fill="none" stroke="#000000" stroke-miterlimit="10" x1="303.2" y1="346" x2="703.2" y2="346"/>
	<line fill="none" stroke="#000000" stroke-miterlimit="10" x1="300.2" y1="353" x2="700.2" y2="353"/>
	<line fill="none" stroke="#000000" stroke-miterlimit="10" x1="300.2" y1="360" x2="700.2" y2="360"/>
	<line fill="none" stroke="#000000" stroke-miterlimit="10" x1="300.2" y1="367" x2="700.2" y2="367"/>
	<line fill="none" stroke="#000000" stroke-miterlimit="10" x1="300.2" y1="374" x2="700.2" y2="374"/>
	<line fill="none" stroke="#000000" stroke-miterlimit="10" x1="303.2" y1="381" x2="703.2" y2="381"/>
	<line fill="none" stroke="#000000" stroke-miterlimit="10" x1="303.2" y1="388" x2="703.2" y2="388"/>
	<line fill="none" stroke="#000000" stroke-miterlimit="10" x1="303.2" y1="395" x2="703.2" y2="395"/>
	<line fill="none" stroke="#000000" stroke-miterlimit="10" x1="303.2" y1="402" x2="703.2" y2="402"/>
	<line fill="none" stroke="#000000" stroke-miterlimit="10" x1="300.2" y1="409" x2="700.2" y2="409"/>
	<line fill="none" stroke="#000000" stroke-miterlimit="10" x1="300.2" y1="416" x2="700.2" y2="416"/>
	<line fill="none" stroke="#000000" stroke-miterlimit="10" x1="300.2" y1="423" x2="700.2" y2="423"/>
	<line fill="none" stroke="#000000" stroke-miterlimit="10" x1="300.2" y1="430" x2="700.2" y2="430"/>
	<line fill="none" stroke="#000000" stroke-miterlimit="10" x1="303.2" y1="437" x2="703.2" y2="437"/>
	<line fill="none" stroke="#000000" stroke-miterlimit="10" x1="303.2" y1="444" x2="703.2" y2="444"/>
	<line fill="none" stroke="#000000" stroke-miterlimit="10" x1="303.2" y1="451" x2="703.2" y2="451"/>
	<line fill="none" stroke="#000000" stroke-miterlimit="10" x1="303.2" y1="458" x2="703.2" y2="458"/>
	<line fill="none" stroke="#000000" stroke-miterlimit="10" x1="300.2" y1="465" x2="700.2" y2="465"/>
	<line fill="none" stroke="#000000" stroke-miterlimit="10" x1="300.2" y1="472" x2="700.2" y2="472"/>
	<line fill="none" stroke="#000000" stroke-miterlimit="10" x1="300.2" y1="479" x2="700.2" y2="479"/>
	<line fill="none" stroke="#000000" stroke-miterlimit="10" x1="300.2" y1="486" x2="700.2" y2="486"/>
	<line fill="none" stroke="#000000" stroke-miterlimit="10" x1="303.2" y1="493" x2="703.2" y2="493"/>
	<line fill="none" stroke="#000000" stroke-miterlimit="10" x1="303.2" y1="500" x2="703.2" y2="500"/>
	<line fill="none" stroke="#000000" stroke-miterlimit="10" x1="303.2" y1="507" x2="703.2" y2="507"/>
	<line fill="none" stroke="#000000" stroke-miterlimit="10" x1="303.2" y1="514" x2="703.2" y2="514"/>
	<line fill="none" stroke="#000000" stroke-miterlimit="10" x1="300.2" y1="521" x2="700.2" y2="521"/>
	<line fill="none" stroke="#000000" stroke-miterlimit="10" x1="300.2" y1="528" x2="700.2" y2="528"/>
	<line fill="none" stroke="#000000" stroke-miterlimit="10" x1="300.2" y1="535" x2="700.2" y2="535"/>
	<line fill="none" stroke="#000000" stroke-miterlimit="10" x1="300.2" y1="542" x2="700.2" y2="542"/>
	<line fill="none" stroke="#000000" stroke-miterlimit="10" x1="303.2" y1="549" x2="703.2" y2="549"/>
	<line fill="none" stroke="#000000" stroke-miterlimit="10" x1="303.2" y1="556" x2="703.2" y2="556"/>
	<line fill="none" stroke="#000000" stroke-miterlimit="10" x1="303.2" y1="563" x2="703.2" y2="563"/>
	<line fill="none" stroke="#000000" stroke-miterlimit="10" x1="303.2" y1="570" x2="703.2" y2="570"/>
	<line fill="none" stroke="#000000" stroke-miterlimit="10" x1="300.2" y1="577" x2="700.2" y2="577"/>
	<line fill="none" stroke="#000000" stroke-miterlimit="10" x1="300.2" y1="584" x2="700.2" y2="584"/>
	<line fill="none" stroke="#000000" stroke-miterlimit="10" x1="300.2" y1="591" x2="700.2" y2="591"/>
	<line fill="none" stroke="#000000" stroke-miterlimit="10" x1="300.2" y1="598" x2="700.2" y2="598"/>
	<line fill="none" stroke="#000000" stroke-miterlimit="10" x1="303.2" y1="605" x2="703.2" y2="605"/>
	<line fill="none" stroke="#000000" stroke-miterlimit="10" x1="303.2" y1="612" x2="703.2" y2="612"/>
	<line fill="none" stroke="#000000" stroke-miterlimit="10" x1="303.2" y1="619" x2="703.2" y2="619"/>
</g>
<g id="Layer_1">
	<rect x="300.2" y="680.5" fill="#4B4B4B" stroke="#000000" stroke-width="12" stroke-miterlimit="10" width="400" height="75"/>
	<g>
		<g>
			
				<image overflow="visible" width="512" height="256" xlink:href="C61E339A.png"  transform="matrix(0.5762 0 0 0.5762 352.732 318.4065)">
			</image>
		</g>
	</g>
	<rect x="326.6" y="478" fill="none" width="346.5" height="74.8"/>
	
		<text transform="matrix(1 0 0 1 335.3873 506.1898)" fill="#0A1252" stroke="#000000" stroke-width="0.25" stroke-miterlimit="10" font-family="'Jersey20-Regular'" font-size="48px">Nostalgia Channel</text>
	<line fill="none" stroke="#000000" stroke-miterlimit="10" x1="303.2" y1="626" x2="703.2" y2="626"/>
</g>
</svg>
